G04*
G04 #@! TF.GenerationSoftware,Altium Limited,Altium Designer,21.1.1 (26)*
G04*
G04 Layer_Color=128*
%FSLAX42Y42*%
%MOMM*%
G71*
G04*
G04 #@! TF.SameCoordinates,0D4DF387-93E8-4759-912B-AE2A25D3863C*
G04*
G04*
G04 #@! TF.FilePolarity,Positive*
G04*
G01*
G75*
%ADD39C,0.05*%
D39*
X2712Y3622D02*
X2775D01*
X2743Y3591D02*
Y3654D01*
X2712Y3134D02*
X2775D01*
X2743Y3103D02*
Y3166D01*
X1163Y4229D02*
X1243D01*
X1203Y4189D02*
Y4269D01*
X2263Y4229D02*
X2343D01*
X2303Y4189D02*
Y4269D01*
X1175Y4585D02*
X1255D01*
X1215Y4545D02*
Y4625D01*
X2275Y4585D02*
X2355D01*
X2315Y4545D02*
Y4625D01*
X1175Y4940D02*
X1255D01*
X1215Y4900D02*
Y4980D01*
X2275Y4940D02*
X2355D01*
X2315Y4900D02*
Y4980D01*
X448Y4788D02*
X568D01*
X508Y4728D02*
Y4848D01*
X448Y4534D02*
X568D01*
X508Y4474D02*
Y4594D01*
X448Y5042D02*
X568D01*
X508Y4982D02*
Y5102D01*
X435Y2070D02*
X555D01*
X495Y2010D02*
Y2130D01*
X435Y2324D02*
X555D01*
X495Y2264D02*
Y2384D01*
X435Y1816D02*
X555D01*
X495Y1756D02*
Y1876D01*
X3364Y5381D02*
X3464D01*
X3414Y5331D02*
Y5431D01*
X3364Y5125D02*
X3464D01*
X3414Y5075D02*
Y5175D01*
X3364Y4869D02*
X3464D01*
X3414Y4819D02*
Y4919D01*
X3364Y4613D02*
X3464D01*
X3414Y4563D02*
Y4663D01*
X3364Y4357D02*
X3464D01*
X3414Y4307D02*
Y4407D01*
X3364Y4101D02*
X3464D01*
X3414Y4051D02*
Y4151D01*
X3364Y3845D02*
X3464D01*
X3414Y3795D02*
Y3895D01*
X3364Y3589D02*
X3464D01*
X3414Y3539D02*
Y3639D01*
X3364Y3333D02*
X3464D01*
X3414Y3283D02*
Y3383D01*
X3364Y3077D02*
X3464D01*
X3414Y3027D02*
Y3127D01*
X3364Y2821D02*
X3464D01*
X3414Y2771D02*
Y2871D01*
X3364Y2565D02*
X3464D01*
X3414Y2515D02*
Y2615D01*
X3364Y2309D02*
X3464D01*
X3414Y2259D02*
Y2359D01*
X3364Y2053D02*
X3464D01*
X3414Y2003D02*
Y2103D01*
X4128Y5381D02*
X4228D01*
X4178Y5331D02*
Y5431D01*
X4128Y5125D02*
X4228D01*
X4178Y5075D02*
Y5175D01*
X4128Y4869D02*
X4228D01*
X4178Y4819D02*
Y4919D01*
X4128Y4613D02*
X4228D01*
X4178Y4563D02*
Y4663D01*
X4128Y4357D02*
X4228D01*
X4178Y4307D02*
Y4407D01*
X4128Y4101D02*
X4228D01*
X4178Y4051D02*
Y4151D01*
X4128Y3845D02*
X4228D01*
X4178Y3795D02*
Y3895D01*
X4128Y3589D02*
X4228D01*
X4178Y3539D02*
Y3639D01*
X4128Y3333D02*
X4228D01*
X4178Y3283D02*
Y3383D01*
X4128Y3077D02*
X4228D01*
X4178Y3027D02*
Y3127D01*
X4128Y2821D02*
X4228D01*
X4178Y2771D02*
Y2871D01*
X4128Y2565D02*
X4228D01*
X4178Y2515D02*
Y2615D01*
X4128Y2309D02*
X4228D01*
X4178Y2259D02*
Y2359D01*
X4128Y2053D02*
X4228D01*
X4178Y2003D02*
Y2103D01*
X4834Y2172D02*
X4894D01*
X4864Y2142D02*
Y2202D01*
X4834Y2426D02*
X4894D01*
X4864Y2396D02*
Y2456D01*
X4821Y3632D02*
X4881D01*
X4851Y3602D02*
Y3662D01*
X4821Y3378D02*
X4881D01*
X4851Y3348D02*
Y3408D01*
X5318Y2959D02*
X5383D01*
X5351Y2927D02*
Y2992D01*
X5818Y2959D02*
X5883D01*
X5851Y2927D02*
Y2992D01*
X6935Y3031D02*
X7035D01*
X6985Y2981D02*
Y3081D01*
X6935Y2531D02*
X7035D01*
X6985Y2481D02*
Y2581D01*
X6962Y4597D02*
X7042D01*
X7002Y4557D02*
Y4637D01*
X5862Y4597D02*
X5942D01*
X5902Y4557D02*
Y4637D01*
X6962Y5283D02*
X7042D01*
X7002Y5243D02*
Y5323D01*
X5862Y5283D02*
X5942D01*
X5902Y5243D02*
Y5323D01*
X6953Y4940D02*
X7033D01*
X6993Y4900D02*
Y4980D01*
X5853Y4940D02*
X5933D01*
X5893Y4900D02*
Y4980D01*
X6176Y2565D02*
X6296D01*
X6236Y2505D02*
Y2625D01*
X6176Y2819D02*
X6296D01*
X6236Y2759D02*
Y2879D01*
X6176Y2311D02*
X6296D01*
X6236Y2251D02*
Y2371D01*
X2778Y762D02*
X2878D01*
X2828Y712D02*
Y812D01*
X2278Y762D02*
X2378D01*
X2328Y712D02*
Y812D01*
X1166Y3492D02*
X1246D01*
X1206Y3453D02*
Y3533D01*
X1166Y3238D02*
X1246D01*
X1206Y3199D02*
Y3278D01*
X1166Y2984D02*
X1246D01*
X1206Y2944D02*
Y3025D01*
X1166Y2731D02*
X1246D01*
X1206Y2691D02*
Y2770D01*
X1166Y2476D02*
X1246D01*
X1206Y2436D02*
Y2517D01*
X1166Y2223D02*
X1246D01*
X1206Y2183D02*
Y2262D01*
X1166Y1968D02*
X1246D01*
X1206Y1928D02*
Y2008D01*
X1166Y1715D02*
X1246D01*
X1206Y1675D02*
Y1755D01*
X2006Y3492D02*
X2086D01*
X2046Y3453D02*
Y3533D01*
X2006Y2731D02*
X2086D01*
X2046Y2691D02*
Y2770D01*
X2006Y2476D02*
X2086D01*
X2046Y2436D02*
Y2517D01*
X2006Y2223D02*
X2086D01*
X2046Y2183D02*
Y2262D01*
X2006Y1968D02*
X2086D01*
X2046Y1928D02*
Y2008D01*
X2006Y1715D02*
X2086D01*
X2046Y1675D02*
Y1755D01*
X2006Y3238D02*
X2086D01*
X2046Y3199D02*
Y3278D01*
X2006Y2984D02*
X2086D01*
X2046Y2944D02*
Y3025D01*
X1191Y775D02*
X1291D01*
X1241Y725D02*
Y825D01*
X691Y775D02*
X791D01*
X741Y725D02*
Y825D01*
X4176Y1239D02*
X4256D01*
X4216Y1199D02*
Y1279D01*
X4176Y589D02*
X4256D01*
X4216Y549D02*
Y629D01*
X5205Y1591D02*
X5285D01*
X5245Y1551D02*
Y1631D01*
X5205Y491D02*
X5285D01*
X5245Y451D02*
Y531D01*
X5738Y1553D02*
X5819D01*
X5778Y1513D02*
Y1593D01*
X5738Y453D02*
X5819D01*
X5778Y413D02*
Y493D01*
X6960Y842D02*
X7060D01*
X7010Y792D02*
Y892D01*
X6960Y1342D02*
X7060D01*
X7010Y1292D02*
Y1392D01*
X6110Y3438D02*
X6160D01*
X6135Y3413D02*
Y3463D01*
X6110Y3618D02*
X6160D01*
X6135Y3593D02*
Y3643D01*
X6110Y3798D02*
X6160D01*
X6135Y3773D02*
Y3823D01*
X6110Y3978D02*
X6160D01*
X6135Y3953D02*
Y4003D01*
X6176Y1676D02*
X6296D01*
X6236Y1616D02*
Y1736D01*
X6176Y1168D02*
X6296D01*
X6236Y1108D02*
Y1228D01*
X6176Y660D02*
X6296D01*
X6236Y600D02*
Y720D01*
X6176Y1422D02*
X6296D01*
X6236Y1362D02*
Y1482D01*
X6176Y914D02*
X6296D01*
X6236Y854D02*
Y974D01*
X6176Y406D02*
X6296D01*
X6236Y346D02*
Y466D01*
X435Y3810D02*
X555D01*
X495Y3750D02*
Y3870D01*
X435Y3302D02*
X555D01*
X495Y3242D02*
Y3362D01*
X435Y3556D02*
X555D01*
X495Y3496D02*
Y3616D01*
X435Y3048D02*
X555D01*
X495Y2988D02*
Y3108D01*
X5565Y1702D02*
X5636D01*
X5601Y1666D02*
Y1737D01*
X723Y3052D02*
X794D01*
X758Y3016D02*
Y3087D01*
X5070Y3137D02*
X5141D01*
X5105Y3101D02*
Y3173D01*
X3101Y2083D02*
X3173D01*
X3137Y2047D02*
Y2118D01*
X2602Y2595D02*
X2673D01*
X2637Y2560D02*
Y2631D01*
X2339Y2311D02*
X2410D01*
X2375Y2276D02*
Y2347D01*
X2301Y3905D02*
X2372D01*
X2337Y3870D02*
Y3941D01*
X4638Y2629D02*
X4709D01*
X4674Y2593D02*
Y2665D01*
X1158Y3785D02*
X1229D01*
X1194Y3749D02*
Y3820D01*
X371Y1397D02*
X442D01*
X406Y1361D02*
Y1433D01*
X1577Y3404D02*
X1649D01*
X1613Y3368D02*
Y3439D01*
X1438Y2984D02*
X1509D01*
X1473Y2949D02*
Y3020D01*
X2034Y5194D02*
X2106D01*
X2070Y5159D02*
Y5230D01*
X5972Y771D02*
X6043D01*
X6007Y735D02*
Y806D01*
X1177Y1454D02*
X1248D01*
X1212Y1419D02*
Y1490D01*
X1730Y737D02*
X1801D01*
X1765Y701D02*
Y772D01*
X6391Y4242D02*
X6462D01*
X6426Y4206D02*
Y4277D01*
X3724Y3302D02*
X3795D01*
X3759Y3266D02*
Y3338D01*
X3736Y4229D02*
X3808D01*
X3772Y4194D02*
Y4265D01*
X3089Y3594D02*
X3160D01*
X3124Y3558D02*
Y3630D01*
X1810Y3946D02*
X1881D01*
X1845Y3910D02*
Y3981D01*
X224Y2769D02*
X295D01*
X260Y2733D02*
Y2804D01*
X231Y4051D02*
X302D01*
X267Y4016D02*
Y4087D01*
X485Y5747D02*
X556D01*
X521Y5711D02*
Y5782D01*
X1118Y5672D02*
X1189D01*
X1154Y5636D02*
Y5707D01*
X2860Y5588D02*
X2931D01*
X2896Y5552D02*
Y5624D01*
X5385Y2081D02*
X5456D01*
X5421Y2045D02*
Y2116D01*
X4371Y3619D02*
X4442D01*
X4407Y3584D02*
Y3655D01*
X4528Y2375D02*
X4599D01*
X4563Y2339D02*
Y2410D01*
X4524Y1689D02*
X4595D01*
X4559Y1653D02*
Y1725D01*
X4943Y1842D02*
X5014D01*
X4978Y1806D02*
Y1877D01*
X6695Y3937D02*
X6767D01*
X6731Y3901D02*
Y3973D01*
X7267Y4369D02*
X7338D01*
X7303Y4333D02*
Y4404D01*
X7483Y4585D02*
X7554D01*
X7518Y4549D02*
Y4620D01*
X6400Y5849D02*
X6471D01*
X6435Y5814D02*
Y5885D01*
X6937Y3683D02*
X7008D01*
X6972Y3647D02*
Y3719D01*
X7356Y1892D02*
X7427D01*
X7391Y1857D02*
Y1928D01*
X6471Y1985D02*
X6542D01*
X6506Y1949D02*
Y2021D01*
X6665Y1083D02*
X6736D01*
X6700Y1048D02*
Y1119D01*
X3901Y1676D02*
X3973D01*
X3937Y1641D02*
Y1712D01*
X3381Y1041D02*
X3452D01*
X3416Y1006D02*
Y1077D01*
X2987Y1410D02*
X3058D01*
X3023Y1374D02*
Y1445D01*
X885Y2229D02*
X956D01*
X921Y2193D02*
Y2264D01*
X676Y1448D02*
X747D01*
X711Y1412D02*
Y1483D01*
X815Y2654D02*
X886D01*
X851Y2619D02*
Y2690D01*
X81Y3353D02*
X152D01*
X116Y3317D02*
Y3388D01*
X960Y4452D02*
X1031D01*
X996Y4417D02*
Y4488D01*
X764Y4369D02*
X836D01*
X800Y4333D02*
Y4404D01*
X2289Y2743D02*
X2360D01*
X2324Y2708D02*
Y2779D01*
X1768Y2972D02*
X1839D01*
X1803Y2936D02*
Y3007D01*
X4587Y4864D02*
X4658D01*
X4623Y4828D02*
Y4900D01*
X3063Y3835D02*
X3134D01*
X3099Y3800D02*
Y3871D01*
X3089Y2807D02*
X3160D01*
X3124Y2771D02*
Y2842D01*
X3711Y2718D02*
X3782D01*
X3747Y2682D02*
Y2753D01*
X5984Y2083D02*
X6055D01*
X6020Y2047D02*
Y2118D01*
X1587Y2586D02*
X1659D01*
X1623Y2550D02*
Y2621D01*
X1590Y2178D02*
X1661D01*
X1626Y2142D02*
Y2213D01*
M02*
