M48
;Layer_Color=9474304
;FILE_FORMAT=4:2
METRIC,LZ
;TYPE=PLATED
T1F00S00C0.50
T2F00S00C0.60
T3F00S00C0.63
T4F00S00C0.65
T5F00S00C0.71
T6F00S00C0.80
T7F00S00C1.00
T9F00S00C1.20
%
T01
X006135Y003438
Y003618
Y003798
Y003978
T02
X004864Y002172
Y002426
X004851Y003378
Y003632
T03
X002743Y003134
Y003622
T04
X005851Y002959
X005351
T05
X000406Y001397
X001765Y000737
X003023Y00141
X003416Y001041
X006007Y000771
X0067Y001083
X006506Y001985
X00602Y002083
X005421Y002081
X005601Y001727
X007391Y001892
X006972Y003683
X006731Y003937
X006426Y004242
X007303Y004369
X007518Y004585
X004623Y004864
X004407Y003619
X003759Y003302
X003747Y002718
X003124Y002807
X002637Y002595
X002324Y002743
X002375Y002311
X001626Y002178
X001623Y002586
X001473Y002984
X001803Y002972
X001613Y003404
X001845Y003946
X002337Y003905
X003099Y003835
X003124Y003594
X003772Y004229
X005105Y003137
X004674Y002629
X004563Y002375
X004559Y001689
X004978Y001842
X003937Y001676
X003137Y002083
X00207Y005194
X000996Y004452
X0008Y004369
X000267Y004051
X000116Y003353
X00026Y002769
X000851Y002654
X000758Y003052
X000921Y002229
X000711Y001448
X001212Y001454
X001194Y003785
X001154Y005672
X000521Y005747
X002896Y005588
X006435Y005849
T06
X004216Y000589
Y001239
X005245Y000491
X005778Y000453
Y001553
X005902Y004597
X005893Y00494
X005902Y005283
X007002
X006993Y00494
X007002Y004597
X002315Y004585
Y00494
X002303Y004229
X002046Y003492
Y003238
Y002984
Y002731
Y002476
Y002223
Y001968
Y001715
X005245Y001591
X001206Y001715
Y001968
Y002223
Y002476
Y002731
Y002984
Y003238
Y003492
X001203Y004229
X001215Y004585
Y00494
T07
X003414Y002053
Y002309
Y002565
Y002821
Y003077
Y003333
Y003589
Y003845
Y004101
Y004357
Y004613
Y004869
Y005125
Y005381
X004178
Y005125
Y004869
Y004613
Y004357
Y004101
Y003845
Y003589
Y003333
Y003077
Y002821
Y002565
Y002309
Y002053
T09
X006236Y000406
Y00066
Y000914
Y001168
Y001422
Y001676
Y002311
Y002565
Y002819
X000495Y003048
Y003302
Y003556
Y00381
X000508Y004534
Y004788
Y005042
X000495Y002324
Y00207
Y001816
M30
