G04*
G04 #@! TF.GenerationSoftware,Altium Limited,Altium Designer,21.1.1 (26)*
G04*
G04 Layer_Physical_Order=2*
G04 Layer_Color=16711680*
%FSLAX42Y42*%
%MOMM*%
G71*
G04*
G04 #@! TF.SameCoordinates,0D4DF387-93E8-4759-912B-AE2A25D3863C*
G04*
G04*
G04 #@! TF.FilePolarity,Positive*
G04*
G01*
G75*
%ADD25C,0.80*%
%ADD26C,1.03*%
%ADD27C,1.70*%
%ADD28C,1.90*%
%ADD29C,1.20*%
%ADD30C,1.52*%
%ADD31R,1.52X1.52*%
%ADD32R,1.52X1.52*%
%ADD34C,1.31*%
%ADD35C,1.00*%
%ADD36C,1.27*%
%ADD37R,1.25X1.25*%
D25*
X5637Y1693D02*
X5777Y1553D01*
X5601Y1702D02*
X5610Y1693D01*
X5777Y1553D02*
X5778D01*
X5610Y1693D02*
X5637D01*
X5432Y1832D02*
X5589Y1989D01*
Y2115D01*
X5250Y2455D02*
X5589Y2115D01*
X5432Y1337D02*
Y1832D01*
Y1337D02*
X5601Y1168D01*
X497Y3050D02*
X756D01*
X495Y3048D02*
X497Y3050D01*
X840Y2404D02*
X1041Y2605D01*
X101Y2191D02*
X921Y3011D01*
X754Y3556D02*
X1041Y3270D01*
X921Y3011D02*
Y3092D01*
X1041Y2605D02*
Y3270D01*
X720Y3293D02*
X921Y3092D01*
X756Y3050D02*
X758Y3052D01*
X4178Y3845D02*
X4836D01*
X3781Y4220D02*
X3804D01*
X3772Y4229D02*
X3781Y4220D01*
X3804D02*
X4178Y3845D01*
X5093Y3137D02*
X5105D01*
X5295Y2575D02*
X5299D01*
X4933Y2937D02*
X5295Y2575D01*
X4906Y2794D02*
X5245Y2455D01*
X4290Y2794D02*
X4906D01*
X4982Y3057D02*
X5080Y2959D01*
X6010Y1509D02*
Y1864D01*
X4902Y3258D02*
X4971D01*
X5080Y2959D02*
X5351D01*
X4971Y3258D02*
X5093Y3137D01*
X4625Y2937D02*
X4933D01*
X4805Y3057D02*
X4982D01*
X4859Y3301D02*
X4902Y3258D01*
X5245Y2455D02*
X5250D01*
X5299Y2575D02*
X6010Y1864D01*
X4203Y2797D02*
X4288D01*
X4528Y3333D02*
X4805Y3057D01*
X4178Y2821D02*
X4203Y2797D01*
X4288D02*
X4290Y2794D01*
X4484Y3077D02*
X4625Y2937D01*
X3409Y2309D02*
X3414D01*
X3137Y2083D02*
X3146Y2092D01*
X3191D01*
X3409Y2309D01*
X2628Y2604D02*
Y2656D01*
Y2604D02*
X2637Y2595D01*
X2046Y3238D02*
X2628Y2656D01*
X2046Y2476D02*
X2063Y2459D01*
X2119D01*
X2137Y2440D01*
X2246D01*
X2375Y2311D01*
X2046Y2476D02*
Y2731D01*
X2303Y3952D02*
X2337Y3918D01*
X2303Y3952D02*
Y4229D01*
X2337Y3905D02*
Y3918D01*
X2265Y3659D02*
X2391D01*
X2181Y3743D02*
X2265Y3659D01*
X2181Y3743D02*
Y3899D01*
X1845Y3946D02*
X2134D01*
X2181Y3899D01*
X2391Y3659D02*
X3090Y4357D01*
X4674Y2623D02*
Y2629D01*
X4860Y2432D02*
X4864D01*
X4674Y2623D02*
X4864Y2432D01*
X1610Y3928D02*
X2046Y3492D01*
X951Y3928D02*
X1610D01*
X1194Y3785D02*
X1200Y3779D01*
X489Y3810D02*
X833D01*
X951Y3928D01*
X1200Y3498D02*
Y3779D01*
Y3498D02*
X1206Y3492D01*
X406Y1410D02*
X495Y1499D01*
X406Y1397D02*
Y1410D01*
X495Y1499D02*
Y1816D01*
X3322Y3134D02*
X3379Y3077D01*
X2743Y3134D02*
X3322D01*
X3379Y3077D02*
X3414D01*
X1206Y3238D02*
X1448D01*
X1613Y3404D01*
X1206Y2984D02*
X1473D01*
X2070Y5194D02*
Y5499D01*
X2382Y5811D01*
X3716D01*
X6016Y618D02*
X6228Y406D01*
X6016Y618D02*
Y762D01*
X6007Y771D02*
X6016Y762D01*
X1209Y1458D02*
X1212Y1454D01*
X1209Y1458D02*
Y1711D01*
X1206Y1715D02*
X1209Y1711D01*
X1797Y756D02*
X2292D01*
X1778Y737D02*
X1797Y756D01*
X1765Y737D02*
X1778D01*
X6135Y3978D02*
X6390Y4233D01*
X6417D01*
X6426Y4242D01*
X3420Y3589D02*
X3698Y3311D01*
X3750D01*
X3759Y3302D01*
X3414Y3589D02*
X3420D01*
X3398Y3333D02*
X3420D01*
X3111Y3594D02*
X3137D01*
X2743Y3622D02*
X3083D01*
X3137Y3594D02*
X3398Y3333D01*
X3083Y3622D02*
X3111Y3594D01*
X260Y2769D02*
Y2781D01*
X495Y3017D02*
Y3048D01*
X260Y2781D02*
X495Y3017D01*
X489Y3810D02*
Y3810D01*
X276Y4023D02*
X489Y3810D01*
X267Y4051D02*
X276Y4042D01*
Y4023D02*
Y4042D01*
X111Y4246D02*
X157Y4293D01*
X111Y3358D02*
Y4246D01*
X157Y4293D02*
X563D01*
X792Y4064D01*
X136Y4995D02*
Y5884D01*
X183Y5931D02*
X3891D01*
X136Y5884D02*
X183Y5931D01*
X3891D02*
X3938Y5884D01*
Y5251D02*
Y5884D01*
X3716Y5811D02*
X3763Y5764D01*
Y4956D02*
Y5764D01*
X635Y4534D02*
X889Y4788D01*
Y5019D02*
X1293Y5423D01*
X889Y4788D02*
Y5019D01*
X1585Y4473D02*
Y5376D01*
X1293Y5423D02*
X1538D01*
X1585Y5376D01*
X508Y5042D02*
Y5721D01*
X521Y5734D01*
Y5747D01*
X508Y5048D02*
X1122Y5663D01*
X1145D01*
X1154Y5672D01*
X508Y5042D02*
Y5048D01*
X4042Y5147D02*
X4156D01*
X4178Y5125D01*
X3938Y5251D02*
X4042Y5147D01*
X3420Y4613D02*
X3763Y4956D01*
X2896Y5588D02*
X3102Y5381D01*
X3414D01*
X5245Y1905D02*
X5421Y2081D01*
X5245Y1591D02*
Y1905D01*
X5601Y1168D02*
X6236D01*
X4413Y3626D02*
X4845D01*
X4851Y3632D01*
X4407Y3619D02*
X4413Y3626D01*
X4563Y2375D02*
X4802D01*
X4550Y1573D02*
Y1680D01*
X4559Y1689D01*
X4216Y1239D02*
X4550Y1573D01*
X4802Y2375D02*
X4860Y2432D01*
X4864Y1969D02*
Y2172D01*
Y1969D02*
X4978Y1854D01*
Y1842D02*
Y1854D01*
X4754Y1724D02*
X4855Y1622D01*
X4754Y1724D02*
Y1770D01*
X4750Y1773D02*
Y1879D01*
X4363Y2266D02*
X4750Y1879D01*
X4855Y961D02*
Y1622D01*
X4750Y1773D02*
X4754Y1770D01*
X4363Y2266D02*
Y2433D01*
X4859Y3301D02*
Y3371D01*
X4851Y3378D02*
X4859Y3371D01*
X6096Y1422D02*
X6236D01*
X6010Y1509D02*
X6096Y1422D01*
X6139Y3798D02*
X6278Y3937D01*
X6731D01*
X6934Y4369D02*
X7303D01*
X6837Y4466D02*
X6934Y4369D01*
X7002Y4597D02*
X7008Y4591D01*
X7512D01*
X7518Y4585D01*
X6837Y4466D02*
Y4784D01*
X6993Y4940D01*
X6129Y4928D02*
Y5397D01*
X7446Y3184D02*
Y3611D01*
X6129Y4928D02*
X7446Y3611D01*
X6435Y5849D02*
X7002Y5283D01*
X6135Y3438D02*
X6925D01*
X6972Y3485D02*
Y3683D01*
X6925Y3438D02*
X6972Y3485D01*
X6990Y2728D02*
X7446Y3184D01*
X7391Y1892D02*
Y2125D01*
X6985Y2531D02*
X7391Y2125D01*
X6242Y1676D02*
Y1676D01*
X6497Y1931D02*
Y1976D01*
X6506Y1985D01*
X6242Y1676D02*
X6497Y1931D01*
X6688Y1083D02*
X6700D01*
X6236Y660D02*
X6265D01*
X6688Y1083D01*
X3946Y1510D02*
X4216Y1239D01*
X3937Y1676D02*
X3946Y1667D01*
Y1510D02*
Y1667D01*
X3654Y1406D02*
Y1710D01*
X3813Y1869D01*
X3994D01*
X3803Y871D02*
Y1257D01*
X3351Y418D02*
X3803Y871D01*
X3654Y1406D02*
X3803Y1257D01*
X3416Y1041D02*
Y1794D01*
X3928Y2306D01*
X2828Y1215D02*
X3023Y1410D01*
X2828Y762D02*
Y1215D01*
X2298Y762D02*
X2328D01*
X2292Y756D02*
X2298Y762D01*
X924Y2226D02*
X1202D01*
X1206Y2223D01*
X921Y2229D02*
X924Y2226D01*
X544Y913D02*
X855Y1223D01*
Y1888D01*
X745Y1997D02*
Y2320D01*
Y1997D02*
X855Y1888D01*
X830Y2404D02*
X840D01*
X745Y2320D02*
X830Y2404D01*
X101Y702D02*
X384Y418D01*
X101Y702D02*
Y2191D01*
X544Y578D02*
Y913D01*
X711Y1448D02*
Y1862D01*
X503Y2070D02*
X711Y1862D01*
X495Y2070D02*
X503D01*
X842Y2645D02*
X851Y2654D01*
X495Y2324D02*
X817Y2645D01*
X842D01*
X111Y3358D02*
X116Y3353D01*
X1271Y4064D02*
X1422Y4216D01*
Y4733D01*
X792Y4064D02*
X1271D01*
X505Y3293D02*
X720D01*
X495Y3302D02*
X505Y3293D01*
X136Y4995D02*
X318Y4813D01*
X483D01*
X1178Y4229D02*
X1203D01*
X1095Y4298D02*
X1109D01*
X996Y4452D02*
X1005Y4443D01*
Y4388D02*
Y4443D01*
X1109Y4298D02*
X1178Y4229D01*
X1005Y4388D02*
X1095Y4298D01*
X641Y4528D02*
X800Y4369D01*
X1203Y4229D02*
X1209Y4235D01*
X483Y4813D02*
X508Y4788D01*
X2052Y2737D02*
X2318D01*
X2324Y2743D01*
X2046Y2731D02*
X2052Y2737D01*
X1372Y578D02*
X2182Y1389D01*
X544Y578D02*
X1372D01*
X1241Y775D02*
X1816Y1350D01*
Y2159D01*
X2182Y1389D02*
X2750D01*
X741Y775D02*
X1626Y1660D01*
Y2178D01*
X1206Y2476D02*
Y2731D01*
X2046D01*
X495Y3556D02*
X754D01*
X1810Y2978D02*
X2039D01*
X1803Y2972D02*
X1810Y2978D01*
X2039D02*
X2046Y2984D01*
X1209Y4235D02*
Y4578D01*
X1215Y4585D01*
X2612Y3014D02*
X2918Y2707D01*
Y2520D02*
Y2707D01*
X3036Y4101D02*
X3414D01*
X2854Y3919D02*
X2854D01*
X3036Y4101D01*
X2612Y3014D02*
Y3677D01*
X2854Y3919D01*
X4178Y3333D02*
Y3589D01*
X3724Y3845D02*
X3980Y3589D01*
X4178D01*
X3414Y3845D02*
X3724D01*
X4181Y4867D02*
X4620D01*
X4623Y4864D01*
X4178Y4869D02*
X4181Y4867D01*
X4178Y4613D02*
X5232D01*
X5902Y5283D01*
X3414Y4613D02*
X3420D01*
X3099Y3835D02*
X3104Y3840D01*
X3409D02*
X3414Y3845D01*
X3104Y3840D02*
X3409D01*
X3124Y2807D02*
X3132Y2814D01*
X3407D02*
X3414Y2821D01*
X3132Y2814D02*
X3407D01*
X3407Y3090D02*
X3738Y2760D01*
X4178Y2565D02*
X4213D01*
X4266Y2513D01*
X4284D01*
X4363Y2433D01*
X4178Y3333D02*
X4528D01*
X3738Y2727D02*
X3747Y2718D01*
X3738Y2727D02*
Y2760D01*
X3420Y3333D02*
X3928Y2825D01*
Y2306D02*
Y2825D01*
X4859Y3386D02*
Y3442D01*
X4991Y3574D02*
Y3690D01*
X4851Y3378D02*
X4859Y3386D01*
Y3442D02*
X4991Y3574D01*
X4836Y3845D02*
X4991Y3690D01*
X6228Y406D02*
X6236D01*
X6020Y2083D02*
Y2089D01*
X6236Y2305D01*
Y2311D01*
X6135Y3798D02*
X6139D01*
X6242Y1676D02*
X6676D01*
X6236D02*
X6242D01*
X4902Y914D02*
X6236D01*
X4855Y961D02*
X4902Y914D01*
X3994Y1869D02*
X4178Y2053D01*
X384Y418D02*
X3351D01*
X2600Y4869D02*
X3414D01*
X2315Y4585D02*
X2600Y4869D01*
X5851Y2959D02*
Y3430D01*
X6039Y3618D01*
X6135D01*
X5351Y2959D02*
X5998Y2311D01*
X6236D01*
Y406D02*
X6575D01*
X7010Y842D01*
X6076Y246D02*
X6236Y406D01*
X5490Y246D02*
X6076D01*
X5245Y491D02*
X5490Y246D01*
X4178Y5381D02*
X4354Y5558D01*
X5969D01*
X6129Y5397D01*
X6789Y2728D02*
X6990D01*
X6627Y2565D02*
X6789Y2728D01*
X6236Y2565D02*
X6627D01*
X2046Y1715D02*
X2403D01*
X3254Y2565D01*
X3414D01*
X4178Y4357D02*
X5310D01*
X5893Y4940D01*
X508Y4534D02*
X635D01*
X1585Y4473D02*
X1829Y4229D01*
X2303D01*
X4851Y3378D02*
X5432D01*
X5851Y2959D01*
X5990Y2819D01*
X6236D01*
X6448Y3031D01*
X6985D01*
X6676Y1676D02*
X7010Y1342D01*
X1206Y1968D02*
X1298D01*
X1425Y2095D01*
Y2388D01*
X1623Y2586D01*
X3090Y4357D02*
X3414D01*
X2046Y1968D02*
X2367D01*
X2918Y2520D01*
X4216Y589D02*
X4336Y709D01*
X5523D01*
X5778Y453D01*
X1816Y2159D02*
X1880Y2223D01*
X2046D01*
X2315Y4940D02*
X2500Y5125D01*
X3414D01*
X4178Y4101D02*
X5406D01*
X5902Y4597D01*
X1215Y4940D02*
X1422Y4733D01*
X4178Y3077D02*
X4484D01*
X2750Y1389D02*
X3414Y2053D01*
D26*
X2743Y3622D02*
D03*
Y3134D02*
D03*
D27*
X1203Y4229D02*
D03*
X2303D02*
D03*
X1215Y4585D02*
D03*
X2315D02*
D03*
X1215Y4940D02*
D03*
X2315D02*
D03*
X7002Y4597D02*
D03*
X5902D02*
D03*
X7002Y5283D02*
D03*
X5902D02*
D03*
X6993Y4940D02*
D03*
X5893D02*
D03*
X1206Y3238D02*
D03*
Y2984D02*
D03*
Y2731D02*
D03*
Y2476D02*
D03*
Y2223D02*
D03*
Y1968D02*
D03*
Y1715D02*
D03*
X2046Y3492D02*
D03*
Y2731D02*
D03*
Y2476D02*
D03*
Y2223D02*
D03*
Y1968D02*
D03*
Y1715D02*
D03*
Y3238D02*
D03*
Y2984D02*
D03*
X5245Y1591D02*
D03*
Y491D02*
D03*
X5778Y1553D02*
D03*
Y453D02*
D03*
D28*
X508Y4788D02*
D03*
Y4534D02*
D03*
Y5042D02*
D03*
X495Y2070D02*
D03*
Y2324D02*
D03*
Y1816D02*
D03*
X3414Y5381D02*
D03*
Y5125D02*
D03*
Y4869D02*
D03*
Y4613D02*
D03*
Y4357D02*
D03*
Y4101D02*
D03*
Y3845D02*
D03*
Y3589D02*
D03*
Y3333D02*
D03*
Y3077D02*
D03*
Y2821D02*
D03*
Y2565D02*
D03*
Y2309D02*
D03*
Y2053D02*
D03*
X4178Y5381D02*
D03*
Y5125D02*
D03*
Y4869D02*
D03*
Y4613D02*
D03*
Y4357D02*
D03*
Y4101D02*
D03*
Y3845D02*
D03*
Y3589D02*
D03*
Y3333D02*
D03*
Y3077D02*
D03*
Y2821D02*
D03*
Y2565D02*
D03*
Y2309D02*
D03*
Y2053D02*
D03*
X6236Y2565D02*
D03*
Y2819D02*
D03*
Y2311D02*
D03*
Y1676D02*
D03*
Y1168D02*
D03*
Y660D02*
D03*
Y1422D02*
D03*
Y914D02*
D03*
Y406D02*
D03*
X495Y3810D02*
D03*
Y3302D02*
D03*
Y3556D02*
D03*
Y3048D02*
D03*
D29*
X4864Y2172D02*
D03*
Y2426D02*
D03*
X4851Y3632D02*
D03*
Y3378D02*
D03*
X5351Y2959D02*
D03*
X5851D02*
D03*
D30*
X6985Y3031D02*
D03*
X2828Y762D02*
D03*
X1241Y775D02*
D03*
X7010Y1342D02*
D03*
D31*
X6985Y2531D02*
D03*
X7010Y842D02*
D03*
D32*
X2328Y762D02*
D03*
X741Y775D02*
D03*
D34*
X4216Y1239D02*
D03*
Y589D02*
D03*
D35*
X6135Y3438D02*
D03*
Y3618D02*
D03*
Y3798D02*
D03*
Y3978D02*
D03*
D36*
X5601Y1702D02*
D03*
X758Y3052D02*
D03*
X5105Y3137D02*
D03*
X3137Y2083D02*
D03*
X2637Y2595D02*
D03*
X2375Y2311D02*
D03*
X2337Y3905D02*
D03*
X4674Y2629D02*
D03*
X1194Y3785D02*
D03*
X406Y1397D02*
D03*
X1613Y3404D02*
D03*
X1473Y2984D02*
D03*
X2070Y5194D02*
D03*
X6007Y771D02*
D03*
X1212Y1454D02*
D03*
X1765Y737D02*
D03*
X6426Y4242D02*
D03*
X3759Y3302D02*
D03*
X3772Y4229D02*
D03*
X3124Y3594D02*
D03*
X1845Y3946D02*
D03*
X260Y2769D02*
D03*
X267Y4051D02*
D03*
X521Y5747D02*
D03*
X1154Y5672D02*
D03*
X2896Y5588D02*
D03*
X5421Y2081D02*
D03*
X4407Y3619D02*
D03*
X4563Y2375D02*
D03*
X4559Y1689D02*
D03*
X4978Y1842D02*
D03*
X6731Y3937D02*
D03*
X7303Y4369D02*
D03*
X7518Y4585D02*
D03*
X6435Y5849D02*
D03*
X6972Y3683D02*
D03*
X7391Y1892D02*
D03*
X6506Y1985D02*
D03*
X6700Y1083D02*
D03*
X3937Y1676D02*
D03*
X3416Y1041D02*
D03*
X3023Y1410D02*
D03*
X921Y2229D02*
D03*
X711Y1448D02*
D03*
X851Y2654D02*
D03*
X116Y3353D02*
D03*
X996Y4452D02*
D03*
X800Y4369D02*
D03*
X2324Y2743D02*
D03*
X1803Y2972D02*
D03*
X4623Y4864D02*
D03*
X3099Y3835D02*
D03*
X3124Y2807D02*
D03*
X3747Y2718D02*
D03*
X6020Y2083D02*
D03*
X1623Y2586D02*
D03*
X1626Y2178D02*
D03*
D37*
X1206Y3492D02*
D03*
M02*
