G04*
G04 #@! TF.GenerationSoftware,Altium Limited,Altium Designer,21.1.1 (26)*
G04*
G04 Layer_Color=255*
%FSLAX42Y42*%
%MOMM*%
G71*
G04*
G04 #@! TF.SameCoordinates,0D4DF387-93E8-4759-912B-AE2A25D3863C*
G04*
G04*
G04 #@! TF.FilePolarity,Positive*
G04*
G01*
G75*
%ADD26C,1.03*%
%ADD27C,1.70*%
%ADD28C,1.90*%
%ADD29C,1.20*%
%ADD30C,1.52*%
%ADD31R,1.52X1.52*%
%ADD32R,1.52X1.52*%
%ADD34C,1.31*%
%ADD35C,1.00*%
%ADD37R,1.25X1.25*%
D26*
X2743Y3622D02*
D03*
Y3134D02*
D03*
D27*
X1203Y4229D02*
D03*
X2303D02*
D03*
X1215Y4585D02*
D03*
X2315D02*
D03*
X1215Y4940D02*
D03*
X2315D02*
D03*
X7002Y4597D02*
D03*
X5902D02*
D03*
X7002Y5283D02*
D03*
X5902D02*
D03*
X6993Y4940D02*
D03*
X5893D02*
D03*
X1206Y3238D02*
D03*
Y2984D02*
D03*
Y2731D02*
D03*
Y2476D02*
D03*
Y2223D02*
D03*
Y1968D02*
D03*
Y1715D02*
D03*
X2046Y3492D02*
D03*
Y2731D02*
D03*
Y2476D02*
D03*
Y2223D02*
D03*
Y1968D02*
D03*
Y1715D02*
D03*
Y3238D02*
D03*
Y2984D02*
D03*
X5245Y1591D02*
D03*
Y491D02*
D03*
X5778Y1553D02*
D03*
Y453D02*
D03*
D28*
X508Y4788D02*
D03*
Y4534D02*
D03*
Y5042D02*
D03*
X495Y2070D02*
D03*
Y2324D02*
D03*
Y1816D02*
D03*
X3414Y5381D02*
D03*
Y5125D02*
D03*
Y4869D02*
D03*
Y4613D02*
D03*
Y4357D02*
D03*
Y4101D02*
D03*
Y3845D02*
D03*
Y3589D02*
D03*
Y3333D02*
D03*
Y3077D02*
D03*
Y2821D02*
D03*
Y2565D02*
D03*
Y2309D02*
D03*
Y2053D02*
D03*
X4178Y5381D02*
D03*
Y5125D02*
D03*
Y4869D02*
D03*
Y4613D02*
D03*
Y4357D02*
D03*
Y4101D02*
D03*
Y3845D02*
D03*
Y3589D02*
D03*
Y3333D02*
D03*
Y3077D02*
D03*
Y2821D02*
D03*
Y2565D02*
D03*
Y2309D02*
D03*
Y2053D02*
D03*
X6236Y2565D02*
D03*
Y2819D02*
D03*
Y2311D02*
D03*
Y1676D02*
D03*
Y1168D02*
D03*
Y660D02*
D03*
Y1422D02*
D03*
Y914D02*
D03*
Y406D02*
D03*
X495Y3810D02*
D03*
Y3302D02*
D03*
Y3556D02*
D03*
Y3048D02*
D03*
D29*
X4864Y2172D02*
D03*
Y2426D02*
D03*
X4851Y3632D02*
D03*
Y3378D02*
D03*
X5351Y2959D02*
D03*
X5851D02*
D03*
D30*
X6985Y3031D02*
D03*
X2828Y762D02*
D03*
X1241Y775D02*
D03*
X7010Y1342D02*
D03*
D31*
X6985Y2531D02*
D03*
X7010Y842D02*
D03*
D32*
X2328Y762D02*
D03*
X741Y775D02*
D03*
D34*
X4216Y1239D02*
D03*
Y589D02*
D03*
D35*
X6135Y3438D02*
D03*
Y3618D02*
D03*
Y3798D02*
D03*
Y3978D02*
D03*
D37*
X1206Y3492D02*
D03*
M02*
