G04*
G04 #@! TF.GenerationSoftware,Altium Limited,Altium Designer,21.1.1 (26)*
G04*
G04 Layer_Color=16711935*
%FSLAX42Y42*%
%MOMM*%
G71*
G04*
G04 #@! TF.SameCoordinates,0D4DF387-93E8-4759-912B-AE2A25D3863C*
G04*
G04*
G04 #@! TF.FilePolarity,Positive*
G04*
G01*
G75*
%ADD10C,0.13*%
%ADD11C,0.20*%
D10*
X2760Y3946D02*
G03*
X2510Y3713I-8J-242D01*
G01*
Y3044D02*
G03*
X2760Y2811I242J8D01*
G01*
X2760Y2811D02*
G03*
X2976Y3043I-8J224D01*
G01*
Y3714D02*
G03*
X2760Y3946I-224J8D01*
G01*
X4816Y914D02*
G03*
X4816Y914I-600J0D01*
G01*
X2510Y3043D02*
Y3713D01*
X2976Y3043D02*
Y3713D01*
X1263Y4229D02*
X1413D01*
X2093D02*
X2243D01*
X1413Y4099D02*
X2093D01*
X1413D02*
Y4229D01*
Y4359D01*
X2093D01*
Y4229D02*
Y4359D01*
Y4099D02*
Y4229D01*
X1275Y4585D02*
X1425D01*
X2105D02*
X2255D01*
X1425Y4455D02*
X2105D01*
X1425D02*
Y4585D01*
Y4715D01*
X2105D01*
Y4585D02*
Y4715D01*
Y4455D02*
Y4585D01*
X1275Y4940D02*
X1425D01*
X2105D02*
X2255D01*
X1425Y4810D02*
X2105D01*
X1425D02*
Y4940D01*
Y5070D01*
X2105D01*
Y4940D02*
Y5070D01*
Y4810D02*
Y4940D01*
X6792Y4597D02*
X6942D01*
X5962D02*
X6112D01*
Y4727D02*
X6792D01*
Y4597D02*
Y4727D01*
Y4467D02*
Y4597D01*
X6112Y4467D02*
X6792D01*
X6112D02*
Y4597D01*
Y4727D01*
X6792Y5283D02*
X6942D01*
X5962D02*
X6112D01*
Y5413D02*
X6792D01*
Y5283D02*
Y5413D01*
Y5153D02*
Y5283D01*
X6112Y5153D02*
X6792D01*
X6112D02*
Y5283D01*
Y5413D01*
X6783Y4940D02*
X6933D01*
X5953D02*
X6103D01*
Y5070D02*
X6783D01*
Y4940D02*
Y5070D01*
Y4810D02*
Y4940D01*
X6103Y4810D02*
X6783D01*
X6103D02*
Y4940D01*
Y5070D01*
X1291Y3603D02*
X2001D01*
X1291Y1604D02*
X2001D01*
X1291D02*
Y3603D01*
X2001Y1604D02*
Y3603D01*
X5245Y1381D02*
Y1531D01*
Y551D02*
Y701D01*
X5115D02*
Y1381D01*
X5245D01*
X5375D01*
Y701D02*
Y1381D01*
X5245Y701D02*
X5375D01*
X5115D02*
X5245D01*
X5778Y1343D02*
X5909D01*
X5648D02*
X5778D01*
X5648Y663D02*
Y1343D01*
Y663D02*
X5778D01*
X5909D01*
Y1343D01*
X5778D02*
Y1493D01*
Y513D02*
Y663D01*
D11*
X1103Y3492D02*
G03*
X1103Y3492I-10J0D01*
G01*
M02*
