G04*
G04 #@! TF.GenerationSoftware,Altium Limited,Altium Designer,21.1.1 (26)*
G04*
G04 Layer_Color=65535*
%FSLAX42Y42*%
%MOMM*%
G71*
G04*
G04 #@! TF.SameCoordinates,0D4DF387-93E8-4759-912B-AE2A25D3863C*
G04*
G04*
G04 #@! TF.FilePolarity,Positive*
G04*
G01*
G75*
%ADD10C,0.13*%
%ADD11C,0.20*%
%ADD12C,0.25*%
%ADD13C,0.70*%
D10*
X2760Y3946D02*
G03*
X2510Y3713I-8J-242D01*
G01*
Y3044D02*
G03*
X2760Y2811I242J8D01*
G01*
X2760Y2811D02*
G03*
X2976Y3043I-8J224D01*
G01*
Y3714D02*
G03*
X2760Y3946I-224J8D01*
G01*
X4816Y914D02*
G03*
X4816Y914I-600J0D01*
G01*
X2510Y3043D02*
Y3713D01*
X2976Y3043D02*
Y3713D01*
X1295Y4229D02*
X1413D01*
X2093D02*
X2211D01*
X1413Y4099D02*
X2093D01*
X1413D02*
Y4229D01*
Y4359D01*
X2093D01*
Y4229D02*
Y4359D01*
Y4099D02*
Y4229D01*
X1307Y4585D02*
X1425D01*
X2105D02*
X2223D01*
X1425Y4455D02*
X2105D01*
X1425D02*
Y4585D01*
Y4715D01*
X2105D01*
Y4585D02*
Y4715D01*
Y4455D02*
Y4585D01*
X1307Y4940D02*
X1425D01*
X2105D02*
X2223D01*
X1425Y4810D02*
X2105D01*
X1425D02*
Y4940D01*
Y5070D01*
X2105D01*
Y4940D02*
Y5070D01*
Y4810D02*
Y4940D01*
X6792Y4597D02*
X6910D01*
X5994D02*
X6112D01*
Y4727D02*
X6792D01*
Y4597D02*
Y4727D01*
Y4467D02*
Y4597D01*
X6112Y4467D02*
X6792D01*
X6112D02*
Y4597D01*
Y4727D01*
X6792Y5283D02*
X6910D01*
X5994D02*
X6112D01*
Y5413D02*
X6792D01*
Y5283D02*
Y5413D01*
Y5153D02*
Y5283D01*
X6112Y5153D02*
X6792D01*
X6112D02*
Y5283D01*
Y5413D01*
X6783Y4940D02*
X6901D01*
X5985D02*
X6103D01*
Y5070D02*
X6783D01*
Y4940D02*
Y5070D01*
Y4810D02*
Y4940D01*
X6103Y4810D02*
X6783D01*
X6103D02*
Y4940D01*
Y5070D01*
X5245Y1381D02*
Y1499D01*
Y583D02*
Y701D01*
X5115D02*
Y1381D01*
X5245D01*
X5375D01*
Y701D02*
Y1381D01*
X5245Y701D02*
X5375D01*
X5115D02*
X5245D01*
X5778Y1343D02*
X5909D01*
X5648D02*
X5778D01*
X5648Y663D02*
Y1343D01*
Y663D02*
X5778D01*
X5909D01*
Y1343D01*
X5778D02*
Y1461D01*
Y545D02*
Y663D01*
D11*
X3732Y5509D02*
G03*
X3860Y5509I64J0D01*
G01*
X4674Y2172D02*
G03*
X5054Y2172I190J0D01*
G01*
Y2426D02*
G03*
X4674Y2426I-190J0D01*
G01*
X5041Y3632D02*
G03*
X4661Y3632I-190J0D01*
G01*
Y3378D02*
G03*
X5041Y3378I190J0D01*
G01*
X5931Y2959D02*
G03*
X5931Y2959I-330J0D01*
G01*
X1103Y3492D02*
G03*
X1103Y3492I-10J0D01*
G01*
X3558Y5509D02*
X3732D01*
X3860D02*
X4035D01*
Y1925D02*
Y5509D01*
X3558Y1925D02*
X4035D01*
X3558D02*
Y5509D01*
X4674Y2172D02*
Y2426D01*
X5054Y2172D02*
Y2426D01*
X5041Y3378D02*
Y3632D01*
X4661Y3378D02*
Y3632D01*
D12*
X6495Y3708D02*
G03*
X6495Y3708I-360J0D01*
G01*
X371Y4391D02*
Y5185D01*
X645Y4391D02*
Y5185D01*
X371Y4391D02*
X645D01*
X371Y5185D02*
X645D01*
X633Y1673D02*
Y2467D01*
X358Y1673D02*
Y2467D01*
X633D01*
X358Y1673D02*
X633D01*
X5170Y3213D02*
X5220D01*
X5270D01*
X5220D02*
Y3263D01*
Y3163D02*
Y3213D01*
X7410Y2184D02*
Y3329D01*
X6561Y2184D02*
Y3329D01*
X7410D01*
X6561Y2184D02*
X7410D01*
X6373Y2168D02*
Y2963D01*
X6098Y2168D02*
Y2963D01*
X6373D01*
X6098Y2168D02*
X6373D01*
X1981Y338D02*
X3125D01*
X1981Y1186D02*
X3125D01*
Y338D02*
Y1186D01*
X1981Y338D02*
Y1186D01*
X393Y350D02*
X1538D01*
X393Y1199D02*
X1538D01*
Y350D02*
Y1199D01*
X393Y350D02*
Y1199D01*
X6586Y495D02*
X7435D01*
X6586Y1639D02*
X7435D01*
X6586Y495D02*
Y1639D01*
X7435Y495D02*
Y1639D01*
X6103Y1829D02*
X6368D01*
X6103Y254D02*
X6368D01*
Y1829D01*
X6103Y254D02*
Y1829D01*
X358Y2892D02*
X633D01*
X358Y3966D02*
X633D01*
X358Y2892D02*
Y3966D01*
X633Y2892D02*
Y3966D01*
X4178Y1588D02*
Y1672D01*
X4153Y191D02*
Y276D01*
X4110Y234D02*
X4195D01*
X3035Y3378D02*
X3137Y3277D01*
X3086Y3327D01*
X3137Y3378D01*
X3035Y3277D01*
X3188D02*
X3238D01*
X3213D01*
Y3429D01*
X3188Y3404D01*
X1295Y3823D02*
Y3696D01*
X1321Y3670D01*
X1372D01*
X1397Y3696D01*
Y3823D01*
X1549Y3670D02*
X1448D01*
X1549Y3772D01*
Y3797D01*
X1524Y3823D01*
X1473D01*
X1448Y3797D01*
X4089Y5893D02*
Y5766D01*
X4115Y5740D01*
X4166D01*
X4191Y5766D01*
Y5893D01*
X4242Y5740D02*
X4293D01*
X4267D01*
Y5893D01*
X4242Y5867D01*
X2642Y4255D02*
Y4407D01*
X2718D01*
X2743Y4381D01*
Y4331D01*
X2718Y4305D01*
X2642D01*
X2692D02*
X2743Y4255D01*
X2794Y4381D02*
X2819Y4407D01*
X2870D01*
X2896Y4381D01*
Y4356D01*
X2870Y4331D01*
X2896Y4305D01*
Y4280D01*
X2870Y4255D01*
X2819D01*
X2794Y4280D01*
Y4305D01*
X2819Y4331D01*
X2794Y4356D01*
Y4381D01*
X2819Y4331D02*
X2870D01*
X2629Y4572D02*
Y4724D01*
X2705D01*
X2731Y4699D01*
Y4648D01*
X2705Y4623D01*
X2629D01*
X2680D02*
X2731Y4572D01*
X2781Y4724D02*
X2883D01*
Y4699D01*
X2781Y4597D01*
Y4572D01*
X2604Y4864D02*
Y5016D01*
X2680D01*
X2705Y4991D01*
Y4940D01*
X2680Y4915D01*
X2604D01*
X2654D02*
X2705Y4864D01*
X2857Y5016D02*
X2807Y4991D01*
X2756Y4940D01*
Y4890D01*
X2781Y4864D01*
X2832D01*
X2857Y4890D01*
Y4915D01*
X2832Y4940D01*
X2756D01*
X5093Y1727D02*
Y1880D01*
X5169D01*
X5194Y1854D01*
Y1803D01*
X5169Y1778D01*
X5093D01*
X5144D02*
X5194Y1727D01*
X5347Y1880D02*
X5245D01*
Y1803D01*
X5296Y1829D01*
X5321D01*
X5347Y1803D01*
Y1753D01*
X5321Y1727D01*
X5270D01*
X5245Y1753D01*
X5667Y1725D02*
Y1877D01*
X5743D01*
X5768Y1852D01*
Y1801D01*
X5743Y1775D01*
X5667D01*
X5718D02*
X5768Y1725D01*
X5895D02*
Y1877D01*
X5819Y1801D01*
X5921D01*
X7150Y5245D02*
Y5397D01*
X7226D01*
X7252Y5372D01*
Y5321D01*
X7226Y5296D01*
X7150D01*
X7201D02*
X7252Y5245D01*
X7302Y5372D02*
X7328Y5397D01*
X7379D01*
X7404Y5372D01*
Y5347D01*
X7379Y5321D01*
X7353D01*
X7379D01*
X7404Y5296D01*
Y5271D01*
X7379Y5245D01*
X7328D01*
X7302Y5271D01*
X7150Y4966D02*
Y5118D01*
X7226D01*
X7252Y5093D01*
Y5042D01*
X7226Y5017D01*
X7150D01*
X7201D02*
X7252Y4966D01*
X7404D02*
X7302D01*
X7404Y5067D01*
Y5093D01*
X7379Y5118D01*
X7328D01*
X7302Y5093D01*
X7176Y4712D02*
Y4864D01*
X7252D01*
X7277Y4839D01*
Y4788D01*
X7252Y4763D01*
X7176D01*
X7226D02*
X7277Y4712D01*
X7328D02*
X7379D01*
X7353D01*
Y4864D01*
X7328Y4839D01*
X180Y2097D02*
X332Y2094D01*
X331Y2018D01*
X305Y1993D01*
X254Y1994D01*
X229Y2020D01*
X231Y2096D01*
X203Y1944D02*
X177Y1919D01*
X176Y1868D01*
X201Y1842D01*
X303Y1841D01*
X328Y1866D01*
X329Y1916D01*
X304Y1942D01*
X279Y1943D01*
X253Y1918D01*
X252Y1842D01*
X5753Y2400D02*
Y2553D01*
X5829D01*
X5855Y2527D01*
Y2476D01*
X5829Y2451D01*
X5753D01*
X5905Y2527D02*
X5931Y2553D01*
X5982D01*
X6007Y2527D01*
Y2502D01*
X5982Y2476D01*
X6007Y2451D01*
Y2426D01*
X5982Y2400D01*
X5931D01*
X5905Y2426D01*
Y2451D01*
X5931Y2476D01*
X5905Y2502D01*
Y2527D01*
X5931Y2476D02*
X5982D01*
X45Y4797D02*
X197Y4804D01*
X201Y4728D01*
X177Y4701D01*
X126Y4699D01*
X99Y4723D01*
X96Y4799D01*
X204Y4652D02*
X209Y4550D01*
X184Y4549D01*
X77Y4646D01*
X52Y4645D01*
X371Y4056D02*
Y4209D01*
X447D01*
X472Y4183D01*
Y4133D01*
X447Y4107D01*
X371D01*
X625Y4209D02*
X574Y4183D01*
X523Y4133D01*
Y4082D01*
X549Y4056D01*
X599D01*
X625Y4082D01*
Y4107D01*
X599Y4133D01*
X523D01*
X6116Y1918D02*
Y2070D01*
X6192D01*
X6218Y2045D01*
Y1994D01*
X6192Y1968D01*
X6116D01*
X6370Y2070D02*
X6269D01*
Y1994D01*
X6319Y2019D01*
X6345D01*
X6370Y1994D01*
Y1943D01*
X6345Y1918D01*
X6294D01*
X6269Y1943D01*
X2197Y114D02*
Y267D01*
X2273D01*
X2299Y241D01*
Y190D01*
X2273Y165D01*
X2197D01*
X2426Y114D02*
Y267D01*
X2349Y190D01*
X2451D01*
X521Y102D02*
Y254D01*
X597D01*
X622Y229D01*
Y178D01*
X597Y152D01*
X521D01*
X673Y229D02*
X698Y254D01*
X749D01*
X775Y229D01*
Y203D01*
X749Y178D01*
X724D01*
X749D01*
X775Y152D01*
Y127D01*
X749Y102D01*
X698D01*
X673Y127D01*
X6599Y1727D02*
Y1880D01*
X6675D01*
X6700Y1854D01*
Y1803D01*
X6675Y1778D01*
X6599D01*
X6853Y1727D02*
X6751D01*
X6853Y1829D01*
Y1854D01*
X6827Y1880D01*
X6777D01*
X6751Y1854D01*
X7099Y3404D02*
Y3556D01*
X7176D01*
X7201Y3531D01*
Y3480D01*
X7176Y3454D01*
X7099D01*
X7252Y3404D02*
X7302D01*
X7277D01*
Y3556D01*
X7252Y3531D01*
X5789Y4310D02*
Y4158D01*
X5865D01*
X5890Y4183D01*
Y4285D01*
X5865Y4310D01*
X5789D01*
X5941Y4158D02*
X5992D01*
X5966D01*
Y4310D01*
X5941Y4285D01*
X5423Y3416D02*
X5398Y3442D01*
X5347D01*
X5321Y3416D01*
Y3315D01*
X5347Y3289D01*
X5398D01*
X5423Y3315D01*
X5474Y3416D02*
X5499Y3442D01*
X5550D01*
X5575Y3416D01*
Y3391D01*
X5550Y3365D01*
X5524D01*
X5550D01*
X5575Y3340D01*
Y3315D01*
X5550Y3289D01*
X5499D01*
X5474Y3315D01*
X4623Y4026D02*
X4597Y4051D01*
X4547D01*
X4521Y4026D01*
Y3924D01*
X4547Y3899D01*
X4597D01*
X4623Y3924D01*
X4775Y3899D02*
X4674D01*
X4775Y4000D01*
Y4026D01*
X4750Y4051D01*
X4699D01*
X4674Y4026D01*
X5029Y2756D02*
X5004Y2781D01*
X4953D01*
X4928Y2756D01*
Y2654D01*
X4953Y2629D01*
X5004D01*
X5029Y2654D01*
X5080Y2629D02*
X5131D01*
X5105D01*
Y2781D01*
X5080Y2756D01*
X3162Y1537D02*
Y1384D01*
X3239D01*
X3264Y1410D01*
Y1435D01*
X3239Y1460D01*
X3162D01*
X3239D01*
X3264Y1486D01*
Y1511D01*
X3239Y1537D01*
X3162D01*
X3315D02*
X3416D01*
Y1511D01*
X3315Y1410D01*
Y1384D01*
X3416D01*
X3467D02*
X3518D01*
X3492D01*
Y1537D01*
X3467Y1511D01*
D13*
X3160Y5381D02*
Y5391D01*
M02*
