G04*
G04 #@! TF.GenerationSoftware,Altium Limited,Altium Designer,21.1.1 (26)*
G04*
G04 Layer_Color=16711935*
%FSLAX42Y42*%
%MOMM*%
G71*
G04*
G04 #@! TF.SameCoordinates,6A6C3286-DEE6-4DC7-8DC0-AF2A02889E3F*
G04*
G04*
G04 #@! TF.FilePolarity,Negative*
G04*
G01*
G75*
%ADD13C,2.00*%
%ADD14O,2.10X4.00*%
%ADD15O,4.00X2.10*%
%ADD16O,4.60X2.40*%
%ADD17C,1.73*%
%ADD18R,1.73X1.73*%
%ADD19C,1.40*%
%ADD20C,2.20*%
D13*
X254Y1524D02*
D03*
X508D02*
D03*
X3429Y1778D02*
D03*
X3683D02*
D03*
D14*
X522Y3696D02*
D03*
D15*
X1001Y4021D02*
D03*
D16*
Y3425D02*
D03*
D17*
X2290Y3710D02*
D03*
X3044Y508D02*
D03*
X1778D02*
D03*
D18*
X2790Y3710D02*
D03*
X2544Y508D02*
D03*
X1278D02*
D03*
D19*
X3048Y2286D02*
D03*
Y2032D02*
D03*
X2286Y2282D02*
D03*
Y1782D02*
D03*
X762Y2286D02*
D03*
Y2032D02*
D03*
X254Y2540D02*
D03*
Y2794D02*
D03*
X3079Y1270D02*
D03*
X2001D02*
D03*
X731D02*
D03*
X1809D02*
D03*
X3556Y2540D02*
D03*
Y2794D02*
D03*
X1524Y2282D02*
D03*
Y1782D02*
D03*
D20*
X2794Y2794D02*
D03*
X2539D02*
D03*
X2284D02*
D03*
X1524D02*
D03*
X1269D02*
D03*
X1014D02*
D03*
M02*
