G04*
G04 #@! TF.GenerationSoftware,Altium Limited,Altium Designer,21.1.1 (26)*
G04*
G04 Layer_Color=2752767*
%FSLAX42Y42*%
%MOMM*%
G71*
G04*
G04 #@! TF.SameCoordinates,6A6C3286-DEE6-4DC7-8DC0-AF2A02889E3F*
G04*
G04*
G04 #@! TF.FilePolarity,Positive*
G04*
G01*
G75*
%ADD30C,0.05*%
%ADD31C,0.07*%
D30*
X234Y1504D02*
Y1544D01*
X274D01*
Y1504D01*
X234D01*
X488D02*
Y1544D01*
X528D01*
Y1504D01*
X488D01*
X1001Y3405D02*
X981Y3446D01*
X1021D01*
X1001Y3405D01*
X2290Y3690D02*
X2300Y3700D01*
X2310D01*
X2300Y3710D01*
X2310Y3720D01*
X2300D01*
X2290Y3730D01*
X2280Y3720D01*
X2270D01*
X2280Y3710D01*
X2270Y3700D01*
X2280D01*
X2290Y3690D01*
X2790D02*
X2800Y3700D01*
X2810D01*
X2800Y3710D01*
X2810Y3720D01*
X2800D01*
X2790Y3730D01*
X2780Y3720D01*
X2770D01*
X2780Y3710D01*
X2770Y3700D01*
X2780D01*
X2790Y3690D01*
X3409Y1758D02*
Y1798D01*
X3449D01*
Y1758D01*
X3409D01*
X3663D02*
Y1798D01*
X3703D01*
Y1758D01*
X3663D01*
X3028Y2266D02*
X3038Y2286D01*
X3028Y2306D01*
X3048Y2296D01*
X3068Y2306D01*
X3058Y2286D01*
X3068Y2266D01*
X3048Y2276D01*
X3028Y2266D01*
Y2012D02*
X3038Y2032D01*
X3028Y2052D01*
X3048Y2042D01*
X3068Y2052D01*
X3058Y2032D01*
X3068Y2012D01*
X3048Y2022D01*
X3028Y2012D01*
X2276Y2272D02*
Y2262D01*
X2296D01*
Y2272D01*
X2306D01*
Y2292D01*
X2296D01*
Y2302D01*
X2276D01*
Y2292D01*
X2266D01*
Y2272D01*
X2276D01*
Y1772D02*
Y1762D01*
X2296D01*
Y1772D01*
X2306D01*
Y1792D01*
X2296D01*
Y1802D01*
X2276D01*
Y1792D01*
X2266D01*
Y1772D01*
X2276D01*
X742Y2266D02*
X752Y2286D01*
X742Y2306D01*
X762Y2296D01*
X782Y2306D01*
X772Y2286D01*
X782Y2266D01*
X762Y2276D01*
X742Y2266D01*
Y2012D02*
X752Y2032D01*
X742Y2052D01*
X762Y2042D01*
X782Y2052D01*
X772Y2032D01*
X782Y2012D01*
X762Y2022D01*
X742Y2012D01*
X2774Y2774D02*
X2784D01*
X2794Y2784D01*
X2804Y2774D01*
X2814D01*
Y2784D01*
X2804Y2794D01*
X2814Y2804D01*
Y2814D01*
X2804D01*
X2794Y2804D01*
X2784Y2814D01*
X2774D01*
Y2804D01*
X2784Y2794D01*
X2774Y2784D01*
Y2774D01*
X2519D02*
X2529D01*
X2539Y2784D01*
X2549Y2774D01*
X2559D01*
Y2784D01*
X2549Y2794D01*
X2559Y2804D01*
Y2814D01*
X2549D01*
X2539Y2804D01*
X2529Y2814D01*
X2519D01*
Y2804D01*
X2529Y2794D01*
X2519Y2784D01*
Y2774D01*
X2264D02*
X2274D01*
X2284Y2784D01*
X2294Y2774D01*
X2304D01*
Y2784D01*
X2294Y2794D01*
X2304Y2804D01*
Y2814D01*
X2294D01*
X2284Y2804D01*
X2274Y2814D01*
X2264D01*
Y2804D01*
X2274Y2794D01*
X2264Y2784D01*
Y2774D01*
X1504D02*
X1514D01*
X1524Y2784D01*
X1534Y2774D01*
X1544D01*
Y2784D01*
X1534Y2794D01*
X1544Y2804D01*
Y2814D01*
X1534D01*
X1524Y2804D01*
X1514Y2814D01*
X1504D01*
Y2804D01*
X1514Y2794D01*
X1504Y2784D01*
Y2774D01*
X1249D02*
X1259D01*
X1269Y2784D01*
X1279Y2774D01*
X1289D01*
Y2784D01*
X1279Y2794D01*
X1289Y2804D01*
Y2814D01*
X1279D01*
X1269Y2804D01*
X1259Y2814D01*
X1249D01*
Y2804D01*
X1259Y2794D01*
X1249Y2784D01*
Y2774D01*
X994D02*
X1004D01*
X1014Y2784D01*
X1024Y2774D01*
X1034D01*
Y2784D01*
X1024Y2794D01*
X1034Y2804D01*
Y2814D01*
X1024D01*
X1014Y2804D01*
X1004Y2814D01*
X994D01*
Y2804D01*
X1004Y2794D01*
X994Y2784D01*
Y2774D01*
X234Y2520D02*
X244Y2540D01*
X234Y2560D01*
X254Y2550D01*
X274Y2560D01*
X264Y2540D01*
X274Y2520D01*
X254Y2530D01*
X234Y2520D01*
Y2774D02*
X244Y2794D01*
X234Y2814D01*
X254Y2804D01*
X274Y2814D01*
X264Y2794D01*
X274Y2774D01*
X254Y2784D01*
X234Y2774D01*
X3059Y1270D02*
X3079Y1290D01*
X3099Y1270D01*
X3079Y1250D01*
X3059Y1270D01*
X1981D02*
X2001Y1290D01*
X2021Y1270D01*
X2001Y1250D01*
X1981Y1270D01*
X711D02*
X731Y1290D01*
X751Y1270D01*
X731Y1250D01*
X711Y1270D01*
X1789D02*
X1809Y1290D01*
X1829Y1270D01*
X1809Y1250D01*
X1789Y1270D01*
X3044Y488D02*
X3054Y498D01*
X3064D01*
X3054Y508D01*
X3064Y518D01*
X3054D01*
X3044Y528D01*
X3034Y518D01*
X3024D01*
X3034Y508D01*
X3024Y498D01*
X3034D01*
X3044Y488D01*
X2544D02*
X2554Y498D01*
X2564D01*
X2554Y508D01*
X2564Y518D01*
X2554D01*
X2544Y528D01*
X2534Y518D01*
X2524D01*
X2534Y508D01*
X2524Y498D01*
X2534D01*
X2544Y488D01*
X1778D02*
X1788Y498D01*
X1798D01*
X1788Y508D01*
X1798Y518D01*
X1788D01*
X1778Y528D01*
X1768Y518D01*
X1758D01*
X1768Y508D01*
X1758Y498D01*
X1768D01*
X1778Y488D01*
X1278D02*
X1288Y498D01*
X1298D01*
X1288Y508D01*
X1298Y518D01*
X1288D01*
X1278Y528D01*
X1268Y518D01*
X1258D01*
X1268Y508D01*
X1258Y498D01*
X1268D01*
X1278Y488D01*
X3536Y2520D02*
X3546Y2540D01*
X3536Y2560D01*
X3556Y2550D01*
X3576Y2560D01*
X3566Y2540D01*
X3576Y2520D01*
X3556Y2530D01*
X3536Y2520D01*
Y2774D02*
X3546Y2794D01*
X3536Y2814D01*
X3556Y2804D01*
X3576Y2814D01*
X3566Y2794D01*
X3576Y2774D01*
X3556Y2784D01*
X3536Y2774D01*
X1514Y2272D02*
Y2262D01*
X1534D01*
Y2272D01*
X1544D01*
Y2292D01*
X1534D01*
Y2302D01*
X1514D01*
Y2292D01*
X1504D01*
Y2272D01*
X1514D01*
Y1772D02*
Y1762D01*
X1534D01*
Y1772D01*
X1544D01*
Y1792D01*
X1534D01*
Y1802D01*
X1514D01*
Y1792D01*
X1504D01*
Y1772D01*
X1514D01*
D31*
X542Y3696D02*
G03*
X542Y3696I-20J0D01*
G01*
X1021Y4021D02*
G03*
X1021Y4021I-20J0D01*
G01*
M02*
