G04*
G04 #@! TF.GenerationSoftware,Altium Limited,Altium Designer,21.1.1 (26)*
G04*
G04 Layer_Color=65535*
%FSLAX42Y42*%
%MOMM*%
G71*
G04*
G04 #@! TF.SameCoordinates,6A6C3286-DEE6-4DC7-8DC0-AF2A02889E3F*
G04*
G04*
G04 #@! TF.FilePolarity,Positive*
G04*
G01*
G75*
%ADD10C,0.25*%
%ADD11C,0.20*%
%ADD12C,0.13*%
D10*
X641Y1674D02*
G03*
X641Y1374I-260J-150D01*
G01*
X3816Y1928D02*
G03*
X3816Y1628I-260J-150D01*
G01*
X641Y1374D02*
Y1674D01*
X3137Y3286D02*
Y4135D01*
X1993Y3286D02*
Y4135D01*
Y3286D02*
X3137D01*
X1993Y4135D02*
X3137D01*
X3816Y1628D02*
Y1928D01*
X2032Y1651D02*
X2082D01*
X1982D02*
X2032D01*
Y1701D01*
Y1601D02*
Y1651D01*
X2032Y2650D02*
Y3084D01*
X3046Y2650D02*
Y3084D01*
X2032D02*
X3046D01*
X2032Y2650D02*
X3046D01*
X762Y2637D02*
Y3071D01*
X1776Y2637D02*
Y3071D01*
X762D02*
X1776D01*
X762Y2637D02*
X1776D01*
X2923Y1120D02*
Y1420D01*
X2157Y1120D02*
Y1420D01*
X2923D01*
X2157Y1120D02*
X2923D01*
X2057Y1270D02*
X2157D01*
X2925D02*
X3025D01*
X887Y1120D02*
Y1420D01*
X1652Y1120D02*
Y1420D01*
X887Y1120D02*
X1652D01*
X887Y1420D02*
X1652D01*
Y1270D02*
X1752D01*
X785D02*
X885D01*
X2197Y84D02*
Y933D01*
X3341Y84D02*
Y933D01*
X2197D02*
X3341D01*
X2197Y84D02*
X3341D01*
X931D02*
Y933D01*
X2075Y84D02*
Y933D01*
X931D02*
X2075D01*
X931Y84D02*
X2075D01*
X1270Y1651D02*
X1320D01*
X1220D02*
X1270D01*
Y1701D01*
Y1601D02*
Y1651D01*
X1321Y3266D02*
Y3165D01*
X1372Y3114D01*
X1422Y3165D01*
Y3266D01*
X1473Y3114D02*
Y3266D01*
X1549D01*
X1575Y3241D01*
Y3190D01*
X1549Y3165D01*
X1473D01*
X1524D02*
X1575Y3114D01*
X1727D02*
X1626D01*
X1727Y3215D01*
Y3241D01*
X1702Y3266D01*
X1651D01*
X1626Y3241D01*
X2108Y3266D02*
Y3165D01*
X2159Y3114D01*
X2210Y3165D01*
Y3266D01*
X2261Y3114D02*
Y3266D01*
X2337D01*
X2362Y3241D01*
Y3190D01*
X2337Y3165D01*
X2261D01*
X2311D02*
X2362Y3114D01*
X2413D02*
X2464D01*
X2438D01*
Y3266D01*
X2413Y3241D01*
X635Y940D02*
Y1092D01*
X711D01*
X737Y1067D01*
Y1016D01*
X711Y991D01*
X635D01*
X686D02*
X737Y940D01*
X889D02*
X787D01*
X889Y1041D01*
Y1067D01*
X864Y1092D01*
X813D01*
X787Y1067D01*
X2438Y1448D02*
Y1600D01*
X2515D01*
X2540Y1575D01*
Y1524D01*
X2515Y1499D01*
X2438D01*
X2489D02*
X2540Y1448D01*
X2591D02*
X2642D01*
X2616D01*
Y1600D01*
X2591Y1575D01*
X635Y178D02*
Y330D01*
X711D01*
X737Y305D01*
Y254D01*
X711Y229D01*
X635D01*
X787Y305D02*
X813Y330D01*
X864D01*
X889Y305D01*
Y279D01*
X864Y254D01*
X838D01*
X864D01*
X889Y229D01*
Y203D01*
X864Y178D01*
X813D01*
X787Y203D01*
X3429Y78D02*
Y230D01*
X3505D01*
X3531Y205D01*
Y154D01*
X3505Y129D01*
X3429D01*
X3683Y78D02*
X3581D01*
X3683Y179D01*
Y205D01*
X3658Y230D01*
X3607D01*
X3581Y205D01*
X3196Y3888D02*
Y4040D01*
X3273D01*
X3298Y4015D01*
Y3964D01*
X3273Y3939D01*
X3196D01*
X3349Y3888D02*
X3400D01*
X3374D01*
Y4040D01*
X3349Y4015D01*
X254Y4140D02*
X203D01*
X229D01*
Y4013D01*
X203Y3988D01*
X178D01*
X152Y4013D01*
X305Y3988D02*
X356D01*
X330D01*
Y4140D01*
X305Y4115D01*
X127Y1092D02*
Y940D01*
X203D01*
X229Y965D01*
Y1067D01*
X203Y1092D01*
X127D01*
X381Y940D02*
X279D01*
X381Y1041D01*
Y1067D01*
X356Y1092D01*
X305D01*
X279Y1067D01*
X3454Y1346D02*
Y1194D01*
X3531D01*
X3556Y1219D01*
Y1321D01*
X3531Y1346D01*
X3454D01*
X3607Y1194D02*
X3658D01*
X3632D01*
Y1346D01*
X3607Y1321D01*
X575Y2721D02*
X549Y2746D01*
X498D01*
X473Y2721D01*
Y2619D01*
X498Y2594D01*
X549D01*
X575Y2619D01*
X727Y2746D02*
X676Y2721D01*
X625Y2670D01*
Y2619D01*
X651Y2594D01*
X702D01*
X727Y2619D01*
Y2645D01*
X702Y2670D01*
X625D01*
X1311Y2576D02*
X1285Y2601D01*
X1234D01*
X1209Y2576D01*
Y2474D01*
X1234Y2449D01*
X1285D01*
X1311Y2474D01*
X1463Y2601D02*
X1361D01*
Y2525D01*
X1412Y2550D01*
X1438D01*
X1463Y2525D01*
Y2474D01*
X1438Y2449D01*
X1387D01*
X1361Y2474D01*
X329Y3199D02*
X303Y3224D01*
X252D01*
X227Y3199D01*
Y3097D01*
X252Y3072D01*
X303D01*
X329Y3097D01*
X456Y3072D02*
Y3224D01*
X379Y3148D01*
X481D01*
X3482Y3198D02*
X3457Y3223D01*
X3406D01*
X3381Y3198D01*
Y3096D01*
X3406Y3071D01*
X3457D01*
X3482Y3096D01*
X3533Y3198D02*
X3558Y3223D01*
X3609D01*
X3635Y3198D01*
Y3172D01*
X3609Y3147D01*
X3584D01*
X3609D01*
X3635Y3122D01*
Y3096D01*
X3609Y3071D01*
X3558D01*
X3533Y3096D01*
X2373Y2475D02*
X2347Y2501D01*
X2296D01*
X2271Y2475D01*
Y2374D01*
X2296Y2349D01*
X2347D01*
X2373Y2374D01*
X2525Y2349D02*
X2423D01*
X2525Y2450D01*
Y2475D01*
X2500Y2501D01*
X2449D01*
X2423Y2475D01*
X2874Y2590D02*
X2849Y2615D01*
X2798D01*
X2773Y2590D01*
Y2488D01*
X2798Y2463D01*
X2849D01*
X2874Y2488D01*
X2925Y2463D02*
X2976D01*
X2950D01*
Y2615D01*
X2925Y2590D01*
D11*
X1001Y3251D02*
G03*
X1001Y3251I-10J0D01*
G01*
X3238Y2286D02*
G03*
X2858Y2286I-190J0D01*
G01*
Y2032D02*
G03*
X3238Y2032I190J0D01*
G01*
X2616D02*
G03*
X2616Y2032I-330J0D01*
G01*
X952Y2286D02*
G03*
X572Y2286I-190J0D01*
G01*
Y2032D02*
G03*
X952Y2032I190J0D01*
G01*
X64Y2540D02*
G03*
X444Y2540I190J0D01*
G01*
Y2794D02*
G03*
X64Y2794I-190J0D01*
G01*
X3366Y2540D02*
G03*
X3746Y2540I190J0D01*
G01*
Y2794D02*
G03*
X3366Y2794I-190J0D01*
G01*
X1854Y2032D02*
G03*
X1854Y2032I-330J0D01*
G01*
X3238Y2032D02*
Y2286D01*
X2858Y2032D02*
Y2286D01*
X952Y2032D02*
Y2286D01*
X572Y2032D02*
Y2286D01*
X64Y2540D02*
Y2794D01*
X444Y2540D02*
Y2794D01*
X3366Y2540D02*
Y2794D01*
X3746Y2540D02*
Y2794D01*
D12*
X1243Y3348D02*
X1431D01*
Y4770D01*
X551D02*
X1431D01*
X551Y3918D02*
Y4770D01*
Y3348D02*
X739D01*
X551D02*
Y3474D01*
M02*
