G04*
G04 #@! TF.GenerationSoftware,Altium Limited,Altium Designer,21.1.1 (26)*
G04*
G04 Layer_Color=128*
%FSLAX42Y42*%
%MOMM*%
G71*
G04*
G04 #@! TF.SameCoordinates,6A6C3286-DEE6-4DC7-8DC0-AF2A02889E3F*
G04*
G04*
G04 #@! TF.FilePolarity,Positive*
G04*
G01*
G75*
%ADD30C,0.05*%
D30*
X214Y1524D02*
X294D01*
X254Y1484D02*
Y1564D01*
X468Y1524D02*
X548D01*
X508Y1484D02*
Y1564D01*
X484Y3696D02*
X560D01*
X522Y3658D02*
Y3734D01*
X963Y4021D02*
X1039D01*
X1001Y3983D02*
Y4059D01*
X950Y3425D02*
X1052D01*
X1001Y3374D02*
Y3476D01*
X2240Y3710D02*
X2340D01*
X2290Y3660D02*
Y3760D01*
X2740Y3710D02*
X2840D01*
X2790Y3660D02*
Y3760D01*
X3389Y1778D02*
X3469D01*
X3429Y1738D02*
Y1818D01*
X3643Y1778D02*
X3723D01*
X3683Y1738D02*
Y1818D01*
X3018Y2286D02*
X3078D01*
X3048Y2256D02*
Y2316D01*
X3018Y2032D02*
X3078D01*
X3048Y2002D02*
Y2062D01*
X2254Y2282D02*
X2319D01*
X2286Y2249D02*
Y2314D01*
X2254Y1782D02*
X2319D01*
X2286Y1749D02*
Y1814D01*
X732Y2286D02*
X792D01*
X762Y2256D02*
Y2316D01*
X732Y2032D02*
X792D01*
X762Y2002D02*
Y2062D01*
X2744Y2794D02*
X2844D01*
X2794Y2744D02*
Y2844D01*
X2489Y2794D02*
X2589D01*
X2539Y2744D02*
Y2844D01*
X2234Y2794D02*
X2334D01*
X2284Y2744D02*
Y2844D01*
X1474Y2794D02*
X1574D01*
X1524Y2744D02*
Y2844D01*
X1219Y2794D02*
X1319D01*
X1269Y2744D02*
Y2844D01*
X964Y2794D02*
X1064D01*
X1014Y2744D02*
Y2844D01*
X224Y2540D02*
X284D01*
X254Y2510D02*
Y2570D01*
X224Y2794D02*
X284D01*
X254Y2764D02*
Y2824D01*
X3043Y1270D02*
X3115D01*
X3079Y1234D02*
Y1306D01*
X1965Y1270D02*
X2037D01*
X2001Y1234D02*
Y1306D01*
X695Y1270D02*
X767D01*
X731Y1234D02*
Y1306D01*
X1773Y1270D02*
X1845D01*
X1809Y1234D02*
Y1306D01*
X2994Y508D02*
X3094D01*
X3044Y458D02*
Y558D01*
X2494Y508D02*
X2594D01*
X2544Y458D02*
Y558D01*
X1728Y508D02*
X1828D01*
X1778Y458D02*
Y558D01*
X1228Y508D02*
X1328D01*
X1278Y458D02*
Y558D01*
X3526Y2540D02*
X3586D01*
X3556Y2510D02*
Y2570D01*
X3526Y2794D02*
X3586D01*
X3556Y2764D02*
Y2824D01*
X1492Y2282D02*
X1557D01*
X1524Y2249D02*
Y2314D01*
X1492Y1782D02*
X1557D01*
X1524Y1749D02*
Y1814D01*
M02*
