M48
;Layer_Color=9474304
;FILE_FORMAT=4:2
METRIC,LZ
;TYPE=PLATED
T1F00S00C0.60
T2F00S00C0.65
T3F00S00C0.72
T5F00S00C0.80
T6F00S00C1.00
%
T01
X003048Y002032
Y002286
X003556Y00254
Y002794
X000762Y002286
Y002032
X000254Y00254
Y002794
T02
X001524Y001782
Y002282
X002286
Y001782
T03
X000731Y00127
X001809
X002001
X003079
T05
X003429Y001778
X003683
X000508Y001524
X000254
T06
X001524Y002794
X002284
X002539
X002794
X001269
X001014
M30
